<svg xmlns="http://www.w3.org/2000/svg" width="495" height="200" viewBox="0 0 495 200">
  <rect width="493" height="198" x="1" y="1" rx="4.5" fill="#0d1117" stroke="#30363d"/>
  <text x="20" y="28" fill="#58a6ff" font-size="14" font-weight="700" font-family="Arial, Helvetica, sans-serif">
    Activity by Hour
  </text>
  <g font-family="Courier New, Courier, monospace">
    <text x="30" y="48.0" text-anchor="end" fill="#8b949e" font-size="9">93</text>
    <text x="30" y="108.0" text-anchor="end" fill="#8b949e" font-size="9">46</text>
    <text x="30" y="168.0" text-anchor="end" fill="#8b949e" font-size="9">0</text>
    <rect x="35.0" y="45" width="16.4" height="120" rx="2" fill="#21262d"/>
    <rect x="35.0" y="113.4" width="16.4" height="51.6" rx="2" fill="#58a6ff"><title>0:00 — 40 sessions</title></rect>
    <rect x="53.4" y="45" width="16.4" height="120" rx="2" fill="#21262d"/>
    <rect x="53.4" y="132.7" width="16.4" height="32.3" rx="2" fill="#58a6ff"><title>1:00 — 25 sessions</title></rect>
    <rect x="71.8" y="45" width="16.4" height="120" rx="2" fill="#21262d"/>
    <rect x="71.8" y="144.4" width="16.4" height="20.6" rx="2" fill="#58a6ff"><title>2:00 — 16 sessions</title></rect>
    <rect x="90.2" y="45" width="16.4" height="120" rx="2" fill="#21262d"/>
    <rect x="90.2" y="159.8" width="16.4" height="5.2" rx="2" fill="#58a6ff"><title>3:00 — 4 sessions</title></rect>
    <rect x="108.7" y="45" width="16.4" height="120" rx="2" fill="#21262d"/>
    <rect x="108.7" y="158.5" width="16.4" height="6.5" rx="2" fill="#58a6ff"><title>4:00 — 5 sessions</title></rect>
    <rect x="127.1" y="45" width="16.4" height="120" rx="2" fill="#21262d"/>
    <rect x="127.1" y="150.8" width="16.4" height="14.2" rx="2" fill="#58a6ff"><title>5:00 — 11 sessions</title></rect>
    <rect x="145.5" y="45" width="16.4" height="120" rx="2" fill="#21262d"/>
    <rect x="145.5" y="121.1" width="16.4" height="43.9" rx="2" fill="#58a6ff"><title>6:00 — 34 sessions</title></rect>
    <rect x="163.9" y="45" width="16.4" height="120" rx="2" fill="#21262d"/>
    <rect x="163.9" y="103.1" width="16.4" height="61.9" rx="2" fill="#58a6ff"><title>7:00 — 48 sessions</title></rect>
    <rect x="182.3" y="45" width="16.4" height="120" rx="2" fill="#21262d"/>
    <rect x="182.3" y="106.9" width="16.4" height="58.1" rx="2" fill="#58a6ff"><title>8:00 — 45 sessions</title></rect>
    <rect x="200.8" y="45" width="16.4" height="120" rx="2" fill="#21262d"/>
    <rect x="200.8" y="121.1" width="16.4" height="43.9" rx="2" fill="#58a6ff"><title>9:00 — 34 sessions</title></rect>
    <rect x="219.2" y="45" width="16.4" height="120" rx="2" fill="#21262d"/>
    <rect x="219.2" y="113.4" width="16.4" height="51.6" rx="2" fill="#58a6ff"><title>10:00 — 40 sessions</title></rect>
    <rect x="237.6" y="45" width="16.4" height="120" rx="2" fill="#21262d"/>
    <rect x="237.6" y="131.5" width="16.4" height="33.5" rx="2" fill="#58a6ff"><title>11:00 — 26 sessions</title></rect>
    <rect x="256.0" y="45" width="16.4" height="120" rx="2" fill="#21262d"/>
    <rect x="256.0" y="86.3" width="16.4" height="78.7" rx="2" fill="#58a6ff"><title>12:00 — 61 sessions</title></rect>
    <rect x="274.4" y="45" width="16.4" height="120" rx="2" fill="#21262d"/>
    <rect x="274.4" y="64.4" width="16.4" height="100.6" rx="2" fill="#58a6ff"><title>13:00 — 78 sessions</title></rect>
    <rect x="292.8" y="45" width="16.4" height="120" rx="2" fill="#21262d"/>
    <rect x="292.8" y="45.0" width="16.4" height="120.0" rx="2" fill="#58a6ff"><title>14:00 — 93 sessions</title></rect>
    <rect x="311.2" y="45" width="16.4" height="120" rx="2" fill="#21262d"/>
    <rect x="311.2" y="99.2" width="16.4" height="65.8" rx="2" fill="#58a6ff"><title>15:00 — 51 sessions</title></rect>
    <rect x="329.7" y="45" width="16.4" height="120" rx="2" fill="#21262d"/>
    <rect x="329.7" y="78.5" width="16.4" height="86.5" rx="2" fill="#58a6ff"><title>16:00 — 67 sessions</title></rect>
    <rect x="348.1" y="45" width="16.4" height="120" rx="2" fill="#21262d"/>
    <rect x="348.1" y="96.6" width="16.4" height="68.4" rx="2" fill="#58a6ff"><title>17:00 — 53 sessions</title></rect>
    <rect x="366.5" y="45" width="16.4" height="120" rx="2" fill="#21262d"/>
    <rect x="366.5" y="125.0" width="16.4" height="40.0" rx="2" fill="#58a6ff"><title>18:00 — 31 sessions</title></rect>
    <rect x="384.9" y="45" width="16.4" height="120" rx="2" fill="#21262d"/>
    <rect x="384.9" y="121.1" width="16.4" height="43.9" rx="2" fill="#58a6ff"><title>19:00 — 34 sessions</title></rect>
    <rect x="403.3" y="45" width="16.4" height="120" rx="2" fill="#21262d"/>
    <rect x="403.3" y="105.6" width="16.4" height="59.4" rx="2" fill="#58a6ff"><title>20:00 — 46 sessions</title></rect>
    <rect x="421.8" y="45" width="16.4" height="120" rx="2" fill="#21262d"/>
    <rect x="421.8" y="90.2" width="16.4" height="74.8" rx="2" fill="#58a6ff"><title>21:00 — 58 sessions</title></rect>
    <rect x="440.2" y="45" width="16.4" height="120" rx="2" fill="#21262d"/>
    <rect x="440.2" y="68.2" width="16.4" height="96.8" rx="2" fill="#58a6ff"><title>22:00 — 75 sessions</title></rect>
    <rect x="458.6" y="45" width="16.4" height="120" rx="2" fill="#21262d"/>
    <rect x="458.6" y="101.8" width="16.4" height="63.2" rx="2" fill="#58a6ff"><title>23:00 — 49 sessions</title></rect>
    <text x="43.2" y="179" text-anchor="middle" fill="#8b949e" font-size="9">0:00</text>
    <text x="98.5" y="179" text-anchor="middle" fill="#8b949e" font-size="9">3:00</text>
    <text x="153.7" y="179" text-anchor="middle" fill="#8b949e" font-size="9">6:00</text>
    <text x="209.0" y="179" text-anchor="middle" fill="#8b949e" font-size="9">9:00</text>
    <text x="264.2" y="179" text-anchor="middle" fill="#8b949e" font-size="9">12:00</text>
    <text x="319.5" y="179" text-anchor="middle" fill="#8b949e" font-size="9">15:00</text>
    <text x="374.7" y="179" text-anchor="middle" fill="#8b949e" font-size="9">18:00</text>
    <text x="430.0" y="179" text-anchor="middle" fill="#8b949e" font-size="9">21:00</text>
  </g>
</svg>