<svg xmlns="http://www.w3.org/2000/svg" width="480" height="260" viewBox="0 0 480 260">
  <rect width="478" height="258" x="1" y="1" rx="4.5" fill="#0d1117" stroke="#30363d"/>
  <text x="20" y="28" fill="#58a6ff" font-size="14" font-weight="700" font-family="Arial, Helvetica, sans-serif">
    Model Usage
  </text>
  <g font-family="Arial, Helvetica, sans-serif">
    <path d="M 120.0 60.0 A 70 70 0 0 1 188.2 145.9 L 163.8 140.2 A 45 45 0 0 0 120.0 85.0 Z" fill="#58a6ff"/>
    <path d="M 188.2 145.9 A 70 70 0 0 1 91.3 193.8 L 101.5 171.0 A 45 45 0 0 0 163.8 140.2 Z" fill="#3fb950"/>
    <path d="M 91.3 193.8 A 70 70 0 0 1 56.2 101.1 L 79.0 111.4 A 45 45 0 0 0 101.5 171.0 Z" fill="#d29922"/>
    <path d="M 56.2 101.1 A 70 70 0 0 1 117.9 60.0 L 118.6 85.0 A 45 45 0 0 0 79.0 111.4 Z" fill="#f85149"/>
    <path d="M 117.9 60.0 A 70 70 0 0 1 118.7 60.0 L 119.2 85.0 A 45 45 0 0 0 118.6 85.0 Z" fill="#bc8cff"/>
    <path d="M 118.7 60.0 A 70 70 0 0 1 119.6 60.0 L 119.7 85.0 A 45 45 0 0 0 119.2 85.0 Z" fill="#39d353"/>
    <path d="M 119.6 60.0 A 70 70 0 0 1 120.0 60.0 L 120.0 85.0 A 45 45 0 0 0 119.7 85.0 Z" fill="#db6d28"/>
    <text x="120" y="125" text-anchor="middle" fill="#c9d1d9" font-size="18" font-weight="700">1K</text><text x="120" y="142" text-anchor="middle" fill="#8b949e" font-size="10">sessions</text>
    <rect x="260" y="47" width="10" height="10" rx="2" fill="#58a6ff"/><text x="276" y="55" fill="#c9d1d9" font-size="11">gpt-5.6-sol</text><text x="276" y="68" fill="#8b949e" font-size="9">294 (29%)</text>
    <rect x="260" y="69" width="10" height="10" rx="2" fill="#3fb950"/><text x="276" y="77" fill="#c9d1d9" font-size="11">gpt-5.6-luna</text><text x="276" y="90" fill="#8b949e" font-size="9">288 (28%)</text>
    <rect x="260" y="91" width="10" height="10" rx="2" fill="#d29922"/><text x="276" y="99" fill="#c9d1d9" font-size="11">gpt-5.6-terra</text><text x="276" y="112" fill="#8b949e" font-size="9">257 (25%)</text>
    <rect x="260" y="113" width="10" height="10" rx="2" fill="#f85149"/><text x="276" y="121" fill="#c9d1d9" font-size="11">gpt-5.5</text><text x="276" y="134" fill="#8b949e" font-size="9">182 (18%)</text>
    <rect x="260" y="135" width="10" height="10" rx="2" fill="#bc8cff"/><text x="276" y="143" fill="#c9d1d9" font-size="11">gpt-5.4-mini</text><text x="276" y="156" fill="#8b949e" font-size="9">2 (0%)</text>
    <rect x="260" y="157" width="10" height="10" rx="2" fill="#39d353"/><text x="276" y="165" fill="#c9d1d9" font-size="11">gpt-5.4</text><text x="276" y="178" fill="#8b949e" font-size="9">2 (0%)</text>
    <rect x="260" y="179" width="10" height="10" rx="2" fill="#db6d28"/><text x="276" y="187" fill="#c9d1d9" font-size="11">gpt-5.3-codex-spark</text><text x="276" y="200" fill="#8b949e" font-size="9">1 (0%)</text>
  </g>
</svg>