<svg xmlns="http://www.w3.org/2000/svg" width="495" height="444" viewBox="0 0 495 444">
  <rect width="493" height="442" x="1" y="1" rx="4.5" fill="#0d1117" stroke="#30363d"/>
  <text x="20" y="28" fill="#58a6ff" font-size="14" font-weight="700" font-family="Arial, Helvetica, sans-serif">
    Token Usage by Model
  </text>
  <g font-family="Courier New, Courier, monospace">
    <text x="20" y="63" fill="#c9d1d9" font-size="11">gpt-5.6-sol</text><rect x="190" y="50" width="250" height="18" rx="3" fill="#21262d"/><rect x="190" y="50" width="250" height="18" rx="3" fill="#58a6ff"/><text x="448" y="63" fill="#8b949e" font-size="10">11.1B</text>
    <text x="20" y="95" fill="#c9d1d9" font-size="11">gpt-5.5</text><rect x="190" y="82" width="250" height="18" rx="3" fill="#21262d"/><rect x="190" y="82" width="122" height="18" rx="3" fill="#3fb950"/><text x="448" y="95" fill="#8b949e" font-size="10">5.4B</text>
    <text x="20" y="127" fill="#c9d1d9" font-size="11">gpt-5.6-luna</text><rect x="190" y="114" width="250" height="18" rx="3" fill="#21262d"/><rect x="190" y="114" width="23" height="18" rx="3" fill="#d29922"/><text x="448" y="127" fill="#8b949e" font-size="10">1B</text>
    <text x="20" y="159" fill="#c9d1d9" font-size="11">gpt-5.6-terra</text><rect x="190" y="146" width="250" height="18" rx="3" fill="#21262d"/><rect x="190" y="146" width="16" height="18" rx="3" fill="#f85149"/><text x="448" y="159" fill="#8b949e" font-size="10">720.6M</text>
    <text x="20" y="191" fill="#c9d1d9" font-size="11">claude-fable-5</text><rect x="190" y="178" width="250" height="18" rx="3" fill="#21262d"/><rect x="190" y="178" width="6" height="18" rx="3" fill="#bc8cff"/><text x="448" y="191" fill="#8b949e" font-size="10">261.1M</text>
    <text x="20" y="223" fill="#c9d1d9" font-size="11">claude-opus-4-8</text><rect x="190" y="210" width="250" height="18" rx="3" fill="#21262d"/><rect x="190" y="210" width="5" height="18" rx="3" fill="#39d353"/><text x="448" y="223" fill="#8b949e" font-size="10">239.5M</text>
    <text x="20" y="255" fill="#c9d1d9" font-size="11">gpt-5.4</text><rect x="190" y="242" width="250" height="18" rx="3" fill="#21262d"/><rect x="190" y="242" width="3" height="18" rx="3" fill="#db6d28"/><text x="448" y="255" fill="#8b949e" font-size="10">140.5M</text>
    <text x="20" y="287" fill="#c9d1d9" font-size="11">claude-sonnet-5</text><rect x="190" y="274" width="250" height="18" rx="3" fill="#21262d"/><rect x="190" y="274" width="2" height="18" rx="3" fill="#f778ba"/><text x="448" y="287" fill="#8b949e" font-size="10">90.3M</text>
    <text x="20" y="319" fill="#c9d1d9" font-size="11">claude-opus-4-7</text><rect x="190" y="306" width="250" height="18" rx="3" fill="#21262d"/><rect x="190" y="306" width="2" height="18" rx="3" fill="#58a6ff"/><text x="448" y="319" fill="#8b949e" font-size="10">11.4M</text>
    <text x="20" y="351" fill="#c9d1d9" font-size="11">claude-sonnet-4-6</text><rect x="190" y="338" width="250" height="18" rx="3" fill="#21262d"/><rect x="190" y="338" width="2" height="18" rx="3" fill="#3fb950"/><text x="448" y="351" fill="#8b949e" font-size="10">5.7M</text>
    <text x="20" y="383" fill="#c9d1d9" font-size="11">gpt-5.3-codex-spark</text><rect x="190" y="370" width="250" height="18" rx="3" fill="#21262d"/><rect x="190" y="370" width="2" height="18" rx="3" fill="#d29922"/><text x="448" y="383" fill="#8b949e" font-size="10">4.9M</text>
    <text x="20" y="415" fill="#c9d1d9" font-size="11">gpt-5.4-mini</text><rect x="190" y="402" width="250" height="18" rx="3" fill="#21262d"/><rect x="190" y="402" width="2" height="18" rx="3" fill="#f85149"/><text x="448" y="415" fill="#8b949e" font-size="10">1.7M</text>
  </g>
</svg>