<svg xmlns="http://www.w3.org/2000/svg" width="480" height="260" viewBox="0 0 480 260">
  <rect width="478" height="258" x="1" y="1" rx="4.5" fill="#0d1117" stroke="#30363d"/>
  <text x="20" y="28" fill="#58a6ff" font-size="14" font-weight="700" font-family="Segoe UI, Ubuntu, sans-serif">
    Model Usage
  </text>
  <g font-family="Segoe UI, Ubuntu, sans-serif">
    <path d="M 120.0 60.0 A 70 70 0 0 1 170.8 178.2 L 152.6 161.0 A 45 45 0 0 0 120.0 85.0 Z" fill="#58a6ff"/>
    <path d="M 170.8 178.2 A 70 70 0 0 1 53.2 150.8 L 77.0 143.4 A 45 45 0 0 0 152.6 161.0 Z" fill="#3fb950"/>
    <path d="M 53.2 150.8 A 70 70 0 0 1 61.1 92.1 L 82.2 105.6 A 45 45 0 0 0 77.0 143.4 Z" fill="#d29922"/>
    <path d="M 61.1 92.1 A 70 70 0 0 1 97.1 63.8 L 105.3 87.5 A 45 45 0 0 0 82.2 105.6 Z" fill="#f85149"/>
    <path d="M 97.1 63.8 A 70 70 0 0 1 114.2 60.2 L 116.3 85.2 A 45 45 0 0 0 105.3 87.5 Z" fill="#bc8cff"/>
    <path d="M 114.2 60.2 A 70 70 0 0 1 120.0 60.0 L 120.0 85.0 A 45 45 0 0 0 116.3 85.2 Z" fill="#39d353"/>
    <text x="120" y="125" text-anchor="middle" fill="#c9d1d9" font-size="18" font-weight="700">151</text><text x="120" y="142" text-anchor="middle" fill="#8b949e" font-size="10">sessions</text>
    <rect x="260" y="47" width="10" height="10" rx="2" fill="#58a6ff"/><text x="276" y="55" fill="#c9d1d9" font-size="11">claude-opus-4-6</text><text x="276" y="68" fill="#8b949e" font-size="9">56 (37%)</text>
    <rect x="260" y="69" width="10" height="10" rx="2" fill="#3fb950"/><text x="276" y="77" fill="#c9d1d9" font-size="11">claude-opus-4-5-20251101</text><text x="276" y="90" fill="#8b949e" font-size="9">50 (33%)</text>
    <rect x="260" y="91" width="10" height="10" rx="2" fill="#d29922"/><text x="276" y="99" fill="#c9d1d9" font-size="11"><synthetic></text><text x="276" y="112" fill="#8b949e" font-size="9">21 (14%)</text>
    <rect x="260" y="113" width="10" height="10" rx="2" fill="#f85149"/><text x="276" y="121" fill="#c9d1d9" font-size="11">claude-haiku-4-5-20251001</text><text x="276" y="134" fill="#8b949e" font-size="9">16 (11%)</text>
    <rect x="260" y="135" width="10" height="10" rx="2" fill="#bc8cff"/><text x="276" y="143" fill="#c9d1d9" font-size="11">gpt-5.3-codex</text><text x="276" y="156" fill="#8b949e" font-size="9">6 (4%)</text>
    <rect x="260" y="157" width="10" height="10" rx="2" fill="#39d353"/><text x="276" y="165" fill="#c9d1d9" font-size="11">unknown</text><text x="276" y="178" fill="#8b949e" font-size="9">2 (1%)</text>
  </g>
</svg>