<svg xmlns="http://www.w3.org/2000/svg" width="480" height="260" viewBox="0 0 480 260">
  <rect width="478" height="258" x="1" y="1" rx="4.5" fill="#0d1117" stroke="#30363d"/>
  <text x="20" y="28" fill="#58a6ff" font-size="14" font-weight="700" font-family="Arial, Helvetica, sans-serif">
    Model Usage
  </text>
  <g font-family="Arial, Helvetica, sans-serif">
    <path d="M 120.0 60.0 A 70 70 0 0 1 146.8 194.7 L 137.2 171.6 A 45 45 0 0 0 120.0 85.0 Z" fill="#58a6ff"/>
    <path d="M 146.8 194.7 A 70 70 0 0 1 58.3 97.0 L 80.3 108.8 A 45 45 0 0 0 137.2 171.6 Z" fill="#3fb950"/>
    <path d="M 58.3 97.0 A 70 70 0 0 1 99.7 63.0 L 106.9 86.9 A 45 45 0 0 0 80.3 108.8 Z" fill="#d29922"/>
    <path d="M 99.7 63.0 A 70 70 0 0 1 120.0 60.0 L 120.0 85.0 A 45 45 0 0 0 106.9 86.9 Z" fill="#f85149"/>
    <text x="120" y="125" text-anchor="middle" fill="#c9d1d9" font-size="18" font-weight="700">128</text><text x="120" y="142" text-anchor="middle" fill="#8b949e" font-size="10">sessions</text>
    <rect x="260" y="47" width="10" height="10" rx="2" fill="#58a6ff"/><text x="276" y="55" fill="#c9d1d9" font-size="11">claude-opus-4-6</text><text x="276" y="68" fill="#8b949e" font-size="9">56 (44%)</text>
    <rect x="260" y="69" width="10" height="10" rx="2" fill="#3fb950"/><text x="276" y="77" fill="#c9d1d9" font-size="11">claude-opus-4-5-20251101</text><text x="276" y="90" fill="#8b949e" font-size="9">50 (39%)</text>
    <rect x="260" y="91" width="10" height="10" rx="2" fill="#d29922"/><text x="276" y="99" fill="#c9d1d9" font-size="11">claude-haiku-4-5-20251001</text><text x="276" y="112" fill="#8b949e" font-size="9">16 (12%)</text>
    <rect x="260" y="113" width="10" height="10" rx="2" fill="#f85149"/><text x="276" y="121" fill="#c9d1d9" font-size="11">gpt-5.3-codex</text><text x="276" y="134" fill="#8b949e" font-size="9">6 (5%)</text>
  </g>
</svg>