<svg xmlns="http://www.w3.org/2000/svg" width="480" height="400" viewBox="0 0 480 400">
  <rect width="478" height="398" x="1" y="1" rx="4.5" fill="#0d1117" stroke="#30363d"/>
  <text x="20" y="28" fill="#58a6ff" font-size="14" font-weight="700" font-family="Segoe UI, Ubuntu, sans-serif">
    Projects
  </text>
  <g font-family="Segoe UI, Ubuntu, monospace">
    <text x="20" y="63" fill="#c9d1d9" font-size="11">Project A</text><rect x="140" y="50" width="300" height="18" rx="3" fill="#21262d"/><rect x="140" y="50" width="300" height="18" rx="3" fill="#58a6ff"/><text x="448" y="63" fill="#8b949e" font-size="10">123.5h</text>
    <text x="20" y="95" fill="#c9d1d9" font-size="11">Project B</text><rect x="140" y="82" width="300" height="18" rx="3" fill="#21262d"/><rect x="140" y="82" width="127" height="18" rx="3" fill="#3fb950"/><text x="448" y="95" fill="#8b949e" font-size="10">52.3h</text>
    <text x="20" y="127" fill="#c9d1d9" font-size="11">Project C</text><rect x="140" y="114" width="300" height="18" rx="3" fill="#21262d"/><rect x="140" y="114" width="107" height="18" rx="3" fill="#58a6ff"/><text x="448" y="127" fill="#8b949e" font-size="10">44.1h</text>
    <text x="20" y="159" fill="#c9d1d9" font-size="11">Project D</text><rect x="140" y="146" width="300" height="18" rx="3" fill="#21262d"/><rect x="140" y="146" width="61" height="18" rx="3" fill="#58a6ff"/><text x="448" y="159" fill="#8b949e" font-size="10">25.2h</text>
    <text x="20" y="191" fill="#c9d1d9" font-size="11">Project E</text><rect x="140" y="178" width="300" height="18" rx="3" fill="#21262d"/><rect x="140" y="178" width="54" height="18" rx="3" fill="#58a6ff"/><text x="448" y="191" fill="#8b949e" font-size="10">22.3h</text>
    <text x="20" y="223" fill="#c9d1d9" font-size="11">Project F</text><rect x="140" y="210" width="300" height="18" rx="3" fill="#21262d"/><rect x="140" y="210" width="51" height="18" rx="3" fill="#58a6ff"/><text x="448" y="223" fill="#8b949e" font-size="10">20.9h</text>
    <text x="20" y="255" fill="#c9d1d9" font-size="11">Project G</text><rect x="140" y="242" width="300" height="18" rx="3" fill="#21262d"/><rect x="140" y="242" width="36" height="18" rx="3" fill="#58a6ff"/><text x="448" y="255" fill="#8b949e" font-size="10">14.9h</text>
    <text x="20" y="287" fill="#c9d1d9" font-size="11">Project H</text><rect x="140" y="274" width="300" height="18" rx="3" fill="#21262d"/><rect x="140" y="274" width="33" height="18" rx="3" fill="#58a6ff"/><text x="448" y="287" fill="#8b949e" font-size="10">13.6h</text>
    <text x="20" y="319" fill="#c9d1d9" font-size="11">Project I</text><rect x="140" y="306" width="300" height="18" rx="3" fill="#21262d"/><rect x="140" y="306" width="22" height="18" rx="3" fill="#3fb950"/><text x="448" y="319" fill="#8b949e" font-size="10">9.0h</text>
    <text x="20" y="351" fill="#c9d1d9" font-size="11">Project J</text><rect x="140" y="338" width="300" height="18" rx="3" fill="#21262d"/><rect x="140" y="338" width="11" height="18" rx="3" fill="#58a6ff"/><text x="448" y="351" fill="#8b949e" font-size="10">4.4h</text>
    <rect x="20" y="378" width="8" height="8" rx="1" fill="#58a6ff"/><text x="32" y="386" fill="#8b949e" font-size="9">claude_code</text>
    <rect x="111" y="378" width="8" height="8" rx="1" fill="#3fb950"/><text x="123" y="386" fill="#8b949e" font-size="9">codex</text>
    <rect x="166" y="378" width="8" height="8" rx="1" fill="#d29922"/><text x="178" y="386" fill="#8b949e" font-size="9">opencode</text>
  </g>
</svg>