<svg xmlns="http://www.w3.org/2000/svg" width="495" height="200" viewBox="0 0 495 200">
  <rect width="493" height="198" x="1" y="1" rx="4.5" fill="#0d1117" stroke="#30363d"/>
  <text x="20" y="28" fill="#58a6ff" font-size="14" font-weight="700" font-family="Arial, Helvetica, sans-serif">
    Activity by Day of Week
  </text>
  <g font-family="Courier New, Courier, monospace">
    <rect x="50.0" y="45" width="50.4" height="120" rx="3" fill="#21262d"/>
    <rect x="50.0" y="45.0" width="50.4" height="120.0" rx="3" fill="#3fb950"><title>Mon: 322 sessions</title></rect>
    <text x="75.2" y="41.0" text-anchor="middle" fill="#8b949e" font-size="9">322</text>
    <rect x="112.4" y="45" width="50.4" height="120" rx="3" fill="#21262d"/>
    <rect x="112.4" y="103.5" width="50.4" height="61.5" rx="3" fill="#3fb950"><title>Tue: 165 sessions</title></rect>
    <text x="137.6" y="99.5" text-anchor="middle" fill="#8b949e" font-size="9">165</text>
    <rect x="174.9" y="45" width="50.4" height="120" rx="3" fill="#21262d"/>
    <rect x="174.9" y="94.2" width="50.4" height="70.8" rx="3" fill="#3fb950"><title>Wed: 190 sessions</title></rect>
    <text x="200.1" y="90.2" text-anchor="middle" fill="#8b949e" font-size="9">190</text>
    <rect x="237.3" y="45" width="50.4" height="120" rx="3" fill="#21262d"/>
    <rect x="237.3" y="146.0" width="50.4" height="19.0" rx="3" fill="#3fb950"><title>Thu: 51 sessions</title></rect>
    <text x="262.5" y="142.0" text-anchor="middle" fill="#8b949e" font-size="9">51</text>
    <rect x="299.7" y="45" width="50.4" height="120" rx="3" fill="#21262d"/>
    <rect x="299.7" y="128.5" width="50.4" height="36.5" rx="3" fill="#3fb950"><title>Fri: 98 sessions</title></rect>
    <text x="324.9" y="124.5" text-anchor="middle" fill="#8b949e" font-size="9">98</text>
    <rect x="362.1" y="45" width="50.4" height="120" rx="3" fill="#21262d"/>
    <rect x="362.1" y="133.0" width="50.4" height="32.0" rx="3" fill="#3fb950"><title>Sat: 86 sessions</title></rect>
    <text x="387.4" y="129.0" text-anchor="middle" fill="#8b949e" font-size="9">86</text>
    <rect x="424.6" y="45" width="50.4" height="120" rx="3" fill="#21262d"/>
    <rect x="424.6" y="122.1" width="50.4" height="42.9" rx="3" fill="#3fb950"><title>Sun: 115 sessions</title></rect>
    <text x="449.8" y="118.1" text-anchor="middle" fill="#8b949e" font-size="9">115</text>
    <text x="75.2" y="179" text-anchor="middle" fill="#c9d1d9" font-size="10">Mon</text>
    <text x="137.6" y="179" text-anchor="middle" fill="#c9d1d9" font-size="10">Tue</text>
    <text x="200.1" y="179" text-anchor="middle" fill="#c9d1d9" font-size="10">Wed</text>
    <text x="262.5" y="179" text-anchor="middle" fill="#c9d1d9" font-size="10">Thu</text>
    <text x="324.9" y="179" text-anchor="middle" fill="#c9d1d9" font-size="10">Fri</text>
    <text x="387.4" y="179" text-anchor="middle" fill="#c9d1d9" font-size="10">Sat</text>
    <text x="449.8" y="179" text-anchor="middle" fill="#c9d1d9" font-size="10">Sun</text>
  </g>
</svg>
