<svg xmlns="http://www.w3.org/2000/svg" width="495" height="200" viewBox="0 0 495 200">
  <rect width="493" height="198" x="1" y="1" rx="4.5" fill="#0d1117" stroke="#30363d"/>
  <text x="20" y="28" fill="#58a6ff" font-size="14" font-weight="700" font-family="Arial, Helvetica, sans-serif">
    Activity by Day of Week
  </text>
  <g font-family="Courier New, Courier, monospace">
    <rect x="50.0" y="45" width="50.4" height="120" rx="3" fill="#21262d"/>
    <rect x="50.0" y="90.7" width="50.4" height="74.3" rx="3" fill="#3fb950"><title>Mon: 135 sessions</title></rect>
    <text x="75.2" y="86.7" text-anchor="middle" fill="#8b949e" font-size="9">135</text>
    <rect x="112.4" y="45" width="50.4" height="120" rx="3" fill="#21262d"/>
    <rect x="112.4" y="85.7" width="50.4" height="79.3" rx="3" fill="#3fb950"><title>Tue: 144 sessions</title></rect>
    <text x="137.6" y="81.7" text-anchor="middle" fill="#8b949e" font-size="9">144</text>
    <rect x="174.9" y="45" width="50.4" height="120" rx="3" fill="#21262d"/>
    <rect x="174.9" y="45.0" width="50.4" height="120.0" rx="3" fill="#3fb950"><title>Wed: 218 sessions</title></rect>
    <text x="200.1" y="41.0" text-anchor="middle" fill="#8b949e" font-size="9">218</text>
    <rect x="237.3" y="45" width="50.4" height="120" rx="3" fill="#21262d"/>
    <rect x="237.3" y="68.7" width="50.4" height="96.3" rx="3" fill="#3fb950"><title>Thu: 175 sessions</title></rect>
    <text x="262.5" y="64.7" text-anchor="middle" fill="#8b949e" font-size="9">175</text>
    <rect x="299.7" y="45" width="50.4" height="120" rx="3" fill="#21262d"/>
    <rect x="299.7" y="105.6" width="50.4" height="59.4" rx="3" fill="#3fb950"><title>Fri: 108 sessions</title></rect>
    <text x="324.9" y="101.6" text-anchor="middle" fill="#8b949e" font-size="9">108</text>
    <rect x="362.1" y="45" width="50.4" height="120" rx="3" fill="#21262d"/>
    <rect x="362.1" y="127.0" width="50.4" height="38.0" rx="3" fill="#3fb950"><title>Sat: 69 sessions</title></rect>
    <text x="387.4" y="123.0" text-anchor="middle" fill="#8b949e" font-size="9">69</text>
    <rect x="424.6" y="45" width="50.4" height="120" rx="3" fill="#21262d"/>
    <rect x="424.6" y="113.3" width="50.4" height="51.7" rx="3" fill="#3fb950"><title>Sun: 94 sessions</title></rect>
    <text x="449.8" y="109.3" text-anchor="middle" fill="#8b949e" font-size="9">94</text>
    <text x="75.2" y="179" text-anchor="middle" fill="#c9d1d9" font-size="10">Mon</text>
    <text x="137.6" y="179" text-anchor="middle" fill="#c9d1d9" font-size="10">Tue</text>
    <text x="200.1" y="179" text-anchor="middle" fill="#c9d1d9" font-size="10">Wed</text>
    <text x="262.5" y="179" text-anchor="middle" fill="#c9d1d9" font-size="10">Thu</text>
    <text x="324.9" y="179" text-anchor="middle" fill="#c9d1d9" font-size="10">Fri</text>
    <text x="387.4" y="179" text-anchor="middle" fill="#c9d1d9" font-size="10">Sat</text>
    <text x="449.8" y="179" text-anchor="middle" fill="#c9d1d9" font-size="10">Sun</text>
  </g>
</svg>