<svg xmlns="http://www.w3.org/2000/svg" width="480" height="260" viewBox="0 0 480 260">
  <rect width="478" height="258" x="1" y="1" rx="4.5" fill="#0d1117" stroke="#30363d"/>
  <text x="20" y="28" fill="#58a6ff" font-size="14" font-weight="700" font-family="Arial, Helvetica, sans-serif">
    Model Usage
  </text>
  <g font-family="Arial, Helvetica, sans-serif">
    <path d="M 120.0 60.0 A 70 70 0 0 1 189.2 140.3 L 164.5 136.6 A 45 45 0 0 0 120.0 85.0 Z" fill="#58a6ff"/>
    <path d="M 189.2 140.3 A 70 70 0 0 1 100.7 197.3 L 107.6 173.3 A 45 45 0 0 0 164.5 136.6 Z" fill="#3fb950"/>
    <path d="M 100.7 197.3 A 70 70 0 0 1 51.6 115.3 L 76.0 120.5 A 45 45 0 0 0 107.6 173.3 Z" fill="#d29922"/>
    <path d="M 51.6 115.3 A 70 70 0 0 1 99.2 63.2 L 106.6 87.0 A 45 45 0 0 0 76.0 120.5 Z" fill="#f85149"/>
    <path d="M 99.2 63.2 A 70 70 0 0 1 104.7 61.7 L 110.2 86.1 A 45 45 0 0 0 106.6 87.0 Z" fill="#bc8cff"/>
    <path d="M 104.7 61.7 A 70 70 0 0 1 110.3 60.7 L 113.7 85.4 A 45 45 0 0 0 110.2 86.1 Z" fill="#39d353"/>
    <path d="M 110.3 60.7 A 70 70 0 0 1 114.7 60.2 L 116.6 85.1 A 45 45 0 0 0 113.7 85.4 Z" fill="#db6d28"/>
    <path d="M 114.7 60.2 A 70 70 0 0 1 117.6 60.0 L 118.4 85.0 A 45 45 0 0 0 116.6 85.1 Z" fill="#f778ba"/>
    <text x="120" y="125" text-anchor="middle" fill="#c9d1d9" font-size="18" font-weight="700">1.1K</text><text x="120" y="142" text-anchor="middle" fill="#8b949e" font-size="10">sessions</text>
    <rect x="260" y="47" width="10" height="10" rx="2" fill="#58a6ff"/><text x="276" y="55" fill="#c9d1d9" font-size="11">gpt-5.6-sol</text><text x="276" y="68" fill="#8b949e" font-size="9">296 (27%)</text>
    <rect x="260" y="69" width="10" height="10" rx="2" fill="#3fb950"/><text x="276" y="77" fill="#c9d1d9" font-size="11">gpt-5.6-luna</text><text x="276" y="90" fill="#8b949e" font-size="9">293 (27%)</text>
    <rect x="260" y="91" width="10" height="10" rx="2" fill="#d29922"/><text x="276" y="99" fill="#c9d1d9" font-size="11">gpt-5.6-terra</text><text x="276" y="112" fill="#8b949e" font-size="9">259 (24%)</text>
    <rect x="260" y="113" width="10" height="10" rx="2" fill="#f85149"/><text x="276" y="121" fill="#c9d1d9" font-size="11">gpt-5.5</text><text x="276" y="134" fill="#8b949e" font-size="9">182 (17%)</text>
    <rect x="260" y="135" width="10" height="10" rx="2" fill="#bc8cff"/><text x="276" y="143" fill="#c9d1d9" font-size="11">claude-fable-5</text><text x="276" y="156" fill="#8b949e" font-size="9">14 (1%)</text>
    <rect x="260" y="157" width="10" height="10" rx="2" fill="#39d353"/><text x="276" y="165" fill="#c9d1d9" font-size="11">claude-opus-4-8</text><text x="276" y="178" fill="#8b949e" font-size="9">14 (1%)</text>
    <rect x="260" y="179" width="10" height="10" rx="2" fill="#db6d28"/><text x="276" y="187" fill="#c9d1d9" font-size="11">gpt-5.4</text><text x="276" y="200" fill="#8b949e" font-size="9">11 (1%)</text>
    <rect x="260" y="201" width="10" height="10" rx="2" fill="#f778ba"/><text x="276" y="209" fill="#c9d1d9" font-size="11">claude-opus-4-7</text><text x="276" y="222" fill="#8b949e" font-size="9">7 (1%)</text>
  </g>
</svg>