<svg xmlns="http://www.w3.org/2000/svg" width="495" height="235" viewBox="0 0 495 235" role="img" aria-labelledby="vc-title vc-desc">
  <title id="vc-title">Activity by Day of Week</title>
  <desc id="vc-desc">Sessions · last 30 complete days</desc>
  <defs>
    <linearGradient id="vc-blue" x1="0" y1="1" x2="1" y2="0">
      <stop stop-color="#79b8ff" stop-opacity="0.6"/>
      <stop offset="1" stop-color="#79b8ff"/>
    </linearGradient>
    <linearGradient id="vc-green" x1="0" y1="1" x2="1" y2="0">
      <stop stop-color="#56d4b0" stop-opacity="0.6"/>
      <stop offset="1" stop-color="#56d4b0"/>
    </linearGradient>
    <linearGradient id="vc-sheen">
      <stop stop-color="#ffffff" stop-opacity="0"/>
      <stop offset="0.5" stop-color="#ffffff" stop-opacity="0.85"/>
      <stop offset="1" stop-color="#ffffff" stop-opacity="0"/>
    </linearGradient>
  </defs>
  <style>
    text { font-family: -apple-system, BlinkMacSystemFont, "Segoe UI", Arial, sans-serif; }
    .vc-sweep { opacity: 0; }
    @media (prefers-reduced-motion: no-preference) {
      .vc-sweep { opacity: 1; animation: vc-sweep 3.5s linear infinite; }
    }
    @keyframes vc-sweep {
      from { transform: translateX(0); }
      to { transform: translateX(625px); }
    }
  </style>
  <rect x="1" y="1" width="493" height="233" rx="14" fill="#0d1117" stroke="#293548"/>
  <rect x="22" y="23" width="3" height="17" rx="1.5" fill="#79b8ff"/>
  <text x="35" y="36" fill="#e6edf3" font-size="16" font-weight="650">Activity by Day of Week</text>
  <text x="22" y="56" fill="#9daec3" font-size="11">Sessions · last 30 complete days</text>

<rect x="50.0" y="80" width="50.4" height="120" rx="3" fill="#161e2b"/>
    <rect x="50.0" y="91.1" width="50.4" height="108.9" rx="3" fill="url(#vc-green)" id="vc-y-0" class="vc-y"><title>Mon: 147 sessions</title></rect>
    <text x="75.2" y="87.1" text-anchor="middle" fill="#9daec3" font-size="9">147</text>
    <rect x="112.4" y="80" width="50.4" height="120" rx="3" fill="#161e2b"/>
    <rect x="112.4" y="83.0" width="50.4" height="117.0" rx="3" fill="url(#vc-green)" id="vc-y-1" class="vc-y"><title>Tue: 158 sessions</title></rect>
    <text x="137.6" y="79.0" text-anchor="middle" fill="#9daec3" font-size="9">158</text>
    <rect x="174.9" y="80" width="50.4" height="120" rx="3" fill="#161e2b"/>
    <rect x="174.9" y="80.0" width="50.4" height="120.0" rx="3" fill="url(#vc-green)" id="vc-y-2" class="vc-y"><title>Wed: 162 sessions</title></rect>
    <text x="200.1" y="76.0" text-anchor="middle" fill="#9daec3" font-size="9">162</text>
    <rect x="237.3" y="80" width="50.4" height="120" rx="3" fill="#161e2b"/>
    <rect x="237.3" y="127.4" width="50.4" height="72.6" rx="3" fill="url(#vc-green)" id="vc-y-3" class="vc-y"><title>Thu: 98 sessions</title></rect>
    <text x="262.5" y="123.4" text-anchor="middle" fill="#9daec3" font-size="9">98</text>
    <rect x="299.7" y="80" width="50.4" height="120" rx="3" fill="#161e2b"/>
    <rect x="299.7" y="105.9" width="50.4" height="94.1" rx="3" fill="url(#vc-green)" id="vc-y-4" class="vc-y"><title>Fri: 127 sessions</title></rect>
    <text x="324.9" y="101.9" text-anchor="middle" fill="#9daec3" font-size="9">127</text>
    <rect x="362.1" y="80" width="50.4" height="120" rx="3" fill="#161e2b"/>
    <rect x="362.1" y="140.0" width="50.4" height="60.0" rx="3" fill="url(#vc-green)" id="vc-y-5" class="vc-y"><title>Sat: 81 sessions</title></rect>
    <text x="387.4" y="136.0" text-anchor="middle" fill="#9daec3" font-size="9">81</text>
    <rect x="424.6" y="80" width="50.4" height="120" rx="3" fill="#161e2b"/>
    <rect x="424.6" y="127.4" width="50.4" height="72.6" rx="3" fill="url(#vc-green)" id="vc-y-6" class="vc-y"><title>Sun: 98 sessions</title></rect>
    <text x="449.8" y="123.4" text-anchor="middle" fill="#9daec3" font-size="9">98</text>
<text x="75.2" y="214" text-anchor="middle" fill="#e6edf3" font-size="10">Mon</text>
    <text x="137.6" y="214" text-anchor="middle" fill="#e6edf3" font-size="10">Tue</text>
    <text x="200.1" y="214" text-anchor="middle" fill="#e6edf3" font-size="10">Wed</text>
    <text x="262.5" y="214" text-anchor="middle" fill="#e6edf3" font-size="10">Thu</text>
    <text x="324.9" y="214" text-anchor="middle" fill="#e6edf3" font-size="10">Fri</text>
    <text x="387.4" y="214" text-anchor="middle" fill="#e6edf3" font-size="10">Sat</text>
    <text x="449.8" y="214" text-anchor="middle" fill="#e6edf3" font-size="10">Sun</text>
<defs>
  <mask id="vc-data" maskUnits="userSpaceOnUse" x="0" y="0" width="495" height="235" style="mask-type:alpha"><use href="#vc-y-0"/><use href="#vc-y-1"/><use href="#vc-y-2"/><use href="#vc-y-3"/><use href="#vc-y-4"/><use href="#vc-y-5"/><use href="#vc-y-6"/></mask>
</defs>
<g mask="url(#vc-data)" opacity="1" aria-hidden="true" pointer-events="none">
  <rect class="vc-sweep" x="-130" y="0" width="130" height="235" fill="url(#vc-sheen)"/>
</g>
</svg>