<svg xmlns="http://www.w3.org/2000/svg" width="495" height="235" viewBox="0 0 495 235" role="img" aria-labelledby="vc-title vc-desc">
  <title id="vc-title">Activity by Hour</title>
  <desc id="vc-desc">Sessions · last 30 complete days</desc>
  <defs>
    <linearGradient id="vc-blue" x1="0" y1="1" x2="1" y2="0">
      <stop stop-color="#79b8ff" stop-opacity="0.6"/>
      <stop offset="1" stop-color="#79b8ff"/>
    </linearGradient>
    <linearGradient id="vc-green" x1="0" y1="1" x2="1" y2="0">
      <stop stop-color="#56d4b0" stop-opacity="0.6"/>
      <stop offset="1" stop-color="#56d4b0"/>
    </linearGradient>
    <linearGradient id="vc-sheen">
      <stop stop-color="#ffffff" stop-opacity="0"/>
      <stop offset="0.5" stop-color="#ffffff" stop-opacity="0.85"/>
      <stop offset="1" stop-color="#ffffff" stop-opacity="0"/>
    </linearGradient>
  </defs>
  <style>
    text { font-family: -apple-system, BlinkMacSystemFont, "Segoe UI", Arial, sans-serif; }
    .vc-sweep { opacity: 0; }
    @media (prefers-reduced-motion: no-preference) {
      .vc-sweep { opacity: 1; animation: vc-sweep 3.5s linear infinite; }
    }
    @keyframes vc-sweep {
      from { transform: translateX(0); }
      to { transform: translateX(625px); }
    }
  </style>
  <rect x="1" y="1" width="493" height="233" rx="14" fill="#0d1117" stroke="#293548"/>
  <rect x="22" y="23" width="3" height="17" rx="1.5" fill="#79b8ff"/>
  <text x="35" y="36" fill="#e6edf3" font-size="16" font-weight="650">Activity by Hour</text>
  <text x="22" y="56" fill="#9daec3" font-size="11">Sessions · last 30 complete days</text>

<text x="30" y="83.0" text-anchor="end" fill="#9daec3" font-size="9">103</text>
    <text x="30" y="143.0" text-anchor="end" fill="#9daec3" font-size="9">51</text>
    <text x="30" y="203.0" text-anchor="end" fill="#9daec3" font-size="9">0</text>
<rect x="35.0" y="80" width="14.5" height="120" rx="2" fill="#161e2b"/>
    <rect x="35.0" y="174.4" width="14.5" height="25.6" rx="2" fill="url(#vc-blue)" id="vc-y-0" class="vc-y"><title>0:00 — 22 sessions</title></rect>
    <rect x="53.5" y="80" width="14.5" height="120" rx="2" fill="#161e2b"/>
    <rect x="53.5" y="182.5" width="14.5" height="17.5" rx="2" fill="url(#vc-blue)" id="vc-y-1" class="vc-y"><title>1:00 — 15 sessions</title></rect>
    <rect x="72.0" y="80" width="14.5" height="120" rx="2" fill="#161e2b"/>
    <rect x="72.0" y="191.8" width="14.5" height="8.2" rx="2" fill="url(#vc-blue)" id="vc-y-2" class="vc-y"><title>2:00 — 7 sessions</title></rect>
    <rect x="90.5" y="80" width="14.5" height="120" rx="2" fill="#161e2b"/>
    <rect x="90.5" y="196.5" width="14.5" height="3.5" rx="2" fill="url(#vc-blue)" id="vc-y-3" class="vc-y"><title>3:00 — 3 sessions</title></rect>
    <rect x="109.0" y="80" width="14.5" height="120" rx="2" fill="#161e2b"/>
    <rect x="127.5" y="80" width="14.5" height="120" rx="2" fill="#161e2b"/>
    <rect x="127.5" y="197.7" width="14.5" height="2.3" rx="2" fill="url(#vc-blue)" id="vc-y-5" class="vc-y"><title>5:00 — 2 sessions</title></rect>
    <rect x="146.0" y="80" width="14.5" height="120" rx="2" fill="#161e2b"/>
    <rect x="146.0" y="184.9" width="14.5" height="15.1" rx="2" fill="url(#vc-blue)" id="vc-y-6" class="vc-y"><title>6:00 — 13 sessions</title></rect>
    <rect x="164.5" y="80" width="14.5" height="120" rx="2" fill="#161e2b"/>
    <rect x="164.5" y="149.9" width="14.5" height="50.1" rx="2" fill="url(#vc-blue)" id="vc-y-7" class="vc-y"><title>7:00 — 43 sessions</title></rect>
    <rect x="183.0" y="80" width="14.5" height="120" rx="2" fill="#161e2b"/>
    <rect x="183.0" y="80.0" width="14.5" height="120.0" rx="2" fill="url(#vc-blue)" id="vc-y-8" class="vc-y"><title>8:00 — 103 sessions</title></rect>
    <rect x="201.5" y="80" width="14.5" height="120" rx="2" fill="#161e2b"/>
    <rect x="201.5" y="152.2" width="14.5" height="47.8" rx="2" fill="url(#vc-blue)" id="vc-y-9" class="vc-y"><title>9:00 — 41 sessions</title></rect>
    <rect x="220.0" y="80" width="14.5" height="120" rx="2" fill="#161e2b"/>
    <rect x="220.0" y="151.1" width="14.5" height="48.9" rx="2" fill="url(#vc-blue)" id="vc-y-10" class="vc-y"><title>10:00 — 42 sessions</title></rect>
    <rect x="238.5" y="80" width="14.5" height="120" rx="2" fill="#161e2b"/>
    <rect x="238.5" y="153.4" width="14.5" height="46.6" rx="2" fill="url(#vc-blue)" id="vc-y-11" class="vc-y"><title>11:00 — 40 sessions</title></rect>
    <rect x="257.0" y="80" width="14.5" height="120" rx="2" fill="#161e2b"/>
    <rect x="257.0" y="156.9" width="14.5" height="43.1" rx="2" fill="url(#vc-blue)" id="vc-y-12" class="vc-y"><title>12:00 — 37 sessions</title></rect>
    <rect x="275.5" y="80" width="14.5" height="120" rx="2" fill="#161e2b"/>
    <rect x="275.5" y="151.1" width="14.5" height="48.9" rx="2" fill="url(#vc-blue)" id="vc-y-13" class="vc-y"><title>13:00 — 42 sessions</title></rect>
    <rect x="294.0" y="80" width="14.5" height="120" rx="2" fill="#161e2b"/>
    <rect x="294.0" y="179.0" width="14.5" height="21.0" rx="2" fill="url(#vc-blue)" id="vc-y-14" class="vc-y"><title>14:00 — 18 sessions</title></rect>
    <rect x="312.5" y="80" width="14.5" height="120" rx="2" fill="#161e2b"/>
    <rect x="312.5" y="180.2" width="14.5" height="19.8" rx="2" fill="url(#vc-blue)" id="vc-y-15" class="vc-y"><title>15:00 — 17 sessions</title></rect>
    <rect x="331.0" y="80" width="14.5" height="120" rx="2" fill="#161e2b"/>
    <rect x="331.0" y="133.6" width="14.5" height="66.4" rx="2" fill="url(#vc-blue)" id="vc-y-16" class="vc-y"><title>16:00 — 57 sessions</title></rect>
    <rect x="349.5" y="80" width="14.5" height="120" rx="2" fill="#161e2b"/>
    <rect x="349.5" y="130.1" width="14.5" height="69.9" rx="2" fill="url(#vc-blue)" id="vc-y-17" class="vc-y"><title>17:00 — 60 sessions</title></rect>
    <rect x="368.0" y="80" width="14.5" height="120" rx="2" fill="#161e2b"/>
    <rect x="368.0" y="174.4" width="14.5" height="25.6" rx="2" fill="url(#vc-blue)" id="vc-y-18" class="vc-y"><title>18:00 — 22 sessions</title></rect>
    <rect x="386.5" y="80" width="14.5" height="120" rx="2" fill="#161e2b"/>
    <rect x="386.5" y="160.4" width="14.5" height="39.6" rx="2" fill="url(#vc-blue)" id="vc-y-19" class="vc-y"><title>19:00 — 34 sessions</title></rect>
    <rect x="405.0" y="80" width="14.5" height="120" rx="2" fill="#161e2b"/>
    <rect x="405.0" y="135.9" width="14.5" height="64.1" rx="2" fill="url(#vc-blue)" id="vc-y-20" class="vc-y"><title>20:00 — 55 sessions</title></rect>
    <rect x="423.5" y="80" width="14.5" height="120" rx="2" fill="#161e2b"/>
    <rect x="423.5" y="156.9" width="14.5" height="43.1" rx="2" fill="url(#vc-blue)" id="vc-y-21" class="vc-y"><title>21:00 — 37 sessions</title></rect>
    <rect x="442.0" y="80" width="14.5" height="120" rx="2" fill="#161e2b"/>
    <rect x="442.0" y="158.1" width="14.5" height="41.9" rx="2" fill="url(#vc-blue)" id="vc-y-22" class="vc-y"><title>22:00 — 36 sessions</title></rect>
    <rect x="460.5" y="80" width="14.5" height="120" rx="2" fill="#161e2b"/>
    <rect x="460.5" y="187.2" width="14.5" height="12.8" rx="2" fill="url(#vc-blue)" id="vc-y-23" class="vc-y"><title>23:00 — 11 sessions</title></rect>
<text x="42.2" y="214" text-anchor="middle" fill="#9daec3" font-size="9">0:00</text>
    <text x="97.8" y="214" text-anchor="middle" fill="#9daec3" font-size="9">3:00</text>
    <text x="153.2" y="214" text-anchor="middle" fill="#9daec3" font-size="9">6:00</text>
    <text x="208.8" y="214" text-anchor="middle" fill="#9daec3" font-size="9">9:00</text>
    <text x="264.2" y="214" text-anchor="middle" fill="#9daec3" font-size="9">12:00</text>
    <text x="319.8" y="214" text-anchor="middle" fill="#9daec3" font-size="9">15:00</text>
    <text x="375.2" y="214" text-anchor="middle" fill="#9daec3" font-size="9">18:00</text>
    <text x="430.8" y="214" text-anchor="middle" fill="#9daec3" font-size="9">21:00</text>
<defs>
  <mask id="vc-data" maskUnits="userSpaceOnUse" x="0" y="0" width="495" height="235" style="mask-type:alpha"><use href="#vc-y-0"/><use href="#vc-y-1"/><use href="#vc-y-2"/><use href="#vc-y-3"/><use href="#vc-y-5"/><use href="#vc-y-6"/><use href="#vc-y-7"/><use href="#vc-y-8"/><use href="#vc-y-9"/><use href="#vc-y-10"/><use href="#vc-y-11"/><use href="#vc-y-12"/><use href="#vc-y-13"/><use href="#vc-y-14"/><use href="#vc-y-15"/><use href="#vc-y-16"/><use href="#vc-y-17"/><use href="#vc-y-18"/><use href="#vc-y-19"/><use href="#vc-y-20"/><use href="#vc-y-21"/><use href="#vc-y-22"/><use href="#vc-y-23"/></mask>
</defs>
<g mask="url(#vc-data)" opacity="1" aria-hidden="true" pointer-events="none">
  <rect class="vc-sweep" x="-130" y="0" width="130" height="235" fill="url(#vc-sheen)"/>
</g>
</svg>